<?xml version="1.0" encoding="UTF-8" standalone="no"?>
<!-- Created with Inkscape (http://www.inkscape.org/) -->

<svg
   xmlns:dc="http://purl.org/dc/elements/1.1/"
   xmlns:cc="http://creativecommons.org/ns#"
   xmlns:rdf="http://www.w3.org/1999/02/22-rdf-syntax-ns#"
   xmlns:svg="http://www.w3.org/2000/svg"
   xmlns="http://www.w3.org/2000/svg"
   xmlns:xlink="http://www.w3.org/1999/xlink"
   xmlns:sodipodi="http://sodipodi.sourceforge.net/DTD/sodipodi-0.dtd"
   xmlns:inkscape="http://www.inkscape.org/namespaces/inkscape"
   width="350mm"
   height="80mm"
   viewBox="0 0 350 80"
   version="1.1"
   id="svg8"
   inkscape:version="0.92.3 (2405546, 2018-03-11)"
   sodipodi:docname="logo.svg">
  <defs
     id="defs2">
    <linearGradient
       inkscape:collect="always"
       id="linearGradient823">
      <stop
         style="stop-color:#fb9826;stop-opacity:1"
         offset="0"
         id="stop819" />
      <stop
         style="stop-color:#e53502;stop-opacity:1"
         offset="1"
         id="stop821" />
    </linearGradient>
    <linearGradient
       inkscape:collect="always"
       xlink:href="#linearGradient823"
       id="linearGradient855"
       gradientUnits="userSpaceOnUse"
       x1="3.1153522"
       y1="256.84409"
       x2="346.8153"
       y2="256.84409" />
  </defs>
  <sodipodi:namedview
     id="base"
     pagecolor="#ffffff"
     bordercolor="#666666"
     borderopacity="1.0"
     inkscape:pageopacity="0.0"
     inkscape:pageshadow="2"
     inkscape:zoom="0.49497475"
     inkscape:cx="441.68467"
     inkscape:cy="-76.123645"
     inkscape:document-units="mm"
     inkscape:current-layer="svg8"
     showgrid="false"
     inkscape:window-width="1920"
     inkscape:window-height="1058"
     inkscape:window-x="1912"
     inkscape:window-y="-8"
     inkscape:window-maximized="1" />
  <metadata
     id="metadata5">
    <rdf:RDF>
      <cc:Work
         rdf:about="">
        <dc:format>image/svg+xml</dc:format>
        <dc:type
           rdf:resource="http://purl.org/dc/dcmitype/StillImage" />
        <dc:title />
      </cc:Work>
    </rdf:RDF>
  </metadata>
  <path
     sodipodi:type="inkscape:offset"
     inkscape:radius="0"
     inkscape:original="M 106.27148 221.33398 L 106.27148 291.33008 L 115.01562 291.33008 L 115.01562 256.07617 C 115.01563 253.59571 116.05347 251.59546 118.13086 250.07617 C 120.20825 248.55689 123.07764 247.79883 126.73633 247.79883 C 134.05371 247.79883 137.71094 250.17017 137.71094 254.91406 L 137.71094 291.33008 L 146.45508 291.33008 L 146.45508 255.37891 C 146.45508 253.36353 146.14551 251.51807 145.52539 249.84375 C 143.35498 244.01465 138.08447 241.10156 129.71289 241.10156 C 123.10864 241.10156 118.20922 242.96093 115.01562 246.68164 L 115.01562 221.33398 L 106.27148 221.33398 z M 210.96289 221.33398 C 205.84692 221.33398 202.03296 222.40357 199.52148 224.54297 C 197.04102 226.65137 195.80078 229.98511 195.80078 234.54297 L 195.80078 242.03125 L 187.56836 242.03125 L 187.56836 248.63477 L 195.80078 248.63477 L 195.80078 291.33008 L 204.54492 291.33008 L 204.54492 248.63477 L 216.49805 248.63477 L 216.49805 242.03125 L 204.54492 242.03125 L 204.54492 233.70508 C 204.54492 229.5813 206.91626 227.51953 211.66016 227.51953 L 217.05664 227.51953 L 216.49805 221.33398 L 210.96289 221.33398 z M 164.31445 224.07812 L 164.31445 233.14844 L 173.05859 233.14844 L 173.05859 224.07812 L 164.31445 224.07812 z M 232.63672 226.77539 L 231.56641 242.03125 L 223.00977 242.03125 L 223.00977 248.63477 L 231.24023 248.63477 L 231.24023 277.23828 C 231.24023 282.54028 232.76025 286.27685 235.79883 288.44727 C 238.86841 290.61767 243.84521 291.70312 250.72852 291.70312 L 252.03125 291.70312 L 252.96094 284.35352 L 251.98438 284.35352 C 247.55054 284.35352 244.43311 283.85742 242.63477 282.86523 C 240.86743 281.84204 239.98438 279.78027 239.98438 276.67969 L 239.98438 248.63477 L 252.35547 248.63477 L 252.35547 242.03125 L 239.98438 242.03125 L 239.98438 226.77539 L 232.63672 226.77539 z M 24.277344 241.10156 C 17.890137 241.10156 13.083985 242.23267 9.859375 244.49609 C 6.6657715 246.75952 5.0683594 250.2937 5.0683594 255.09961 L 5.0683594 257.33203 L 13.486328 257.33203 L 13.486328 255.14648 C 13.486328 253.34815 13.795898 251.92139 14.416016 250.86719 C 15.625244 248.8208 18.897461 247.79883 24.230469 247.79883 C 28.013184 247.79883 30.461914 248.46558 31.578125 249.79883 C 32.725342 251.13208 33.298828 252.49536 33.298828 253.89062 C 33.298828 255.28588 33.253174 256.30981 33.160156 256.96094 C 33.067139 257.58105 32.586915 258.44824 31.71875 259.56445 C 30.881592 260.68067 27.656983 262.01416 22.044922 263.56445 C 12.340088 266.38599 6.5100098 269.34669 4.5566406 272.44727 C 3.595459 273.96656 3.1152344 275.87354 3.1152344 278.16797 C 3.1152344 282.19873 4.4943848 285.57813 7.2539062 288.30664 C 10.013428 291.00415 13.888916 292.35352 18.880859 292.35352 C 21.020263 292.35352 22.958984 292.10547 24.695312 291.60938 C 28.322999 290.61718 31.424561 288.19824 33.998047 284.35352 C 34.8042 286.865 35.965088 288.72632 37.484375 289.93555 C 39.003662 291.11377 41.31543 291.70312 44.416016 291.70312 L 46.181641 291.70312 L 47.205078 285.00586 C 45.065674 285.00586 43.670655 284.63281 43.019531 283.88867 C 42.368409 283.11353 42.042969 281.43872 42.042969 278.86523 L 42.042969 257.84375 C 42.042969 252.47974 40.679688 248.3562 37.951172 245.47266 C 35.222657 242.5581 30.664551 241.10156 24.277344 241.10156 z M 74.832031 241.10156 C 68.568847 241.10156 64.22705 242.31006 61.808594 244.72852 C 60.599365 245.93774 59.732177 247.34863 59.205078 248.96094 C 58.677978 250.54223 58.414062 252.64966 58.414062 255.28516 C 58.414062 257.92066 59.112549 260.12329 60.507812 261.89062 C 61.934082 263.62695 64.444336 265.1311 68.041016 266.40234 L 79.761719 270.72656 C 81.932129 271.53272 83.311279 272.46338 83.900391 273.51758 C 84.489502 274.54077 84.785156 276.12232 84.785156 278.26172 C 84.785156 283.19165 81.483154 285.65625 74.878906 285.65625 C 69.545898 285.65625 64.662354 284.41601 60.228516 281.93555 L 58.087891 288.35352 C 59.762207 289.28369 62.165283 290.18261 65.296875 291.05078 C 68.428467 291.91895 72.010254 292.35352 76.041016 292.35352 C 81.560059 292.35352 85.637939 291.05176 88.273438 288.44727 C 90.908935 285.81177 92.226562 282.44629 92.226562 278.35352 C 92.226563 274.26074 91.589599 271.27027 90.318359 269.37891 C 89.047119 267.45655 86.397949 265.70435 82.367188 264.12305 L 70.785156 259.56445 C 69.11084 258.97534 67.979736 258.32446 67.390625 257.61133 C 66.832519 256.86719 66.552734 255.62695 66.552734 253.89062 C 66.552734 252.1543 66.909912 250.83667 67.623047 249.9375 C 68.80127 248.51123 71.607178 247.79883 76.041016 247.79883 C 77.963379 247.79883 80.21167 248.09253 82.785156 248.68164 C 85.358642 249.23975 87.436279 249.84497 89.017578 250.49609 L 91.017578 243.79883 C 86.490723 242.00049 81.095215 241.10156 74.832031 241.10156 z M 285.23828 241.10156 C 278.54101 241.10156 273.53247 242.49658 270.21484 245.28711 C 266.89722 248.07764 265.23828 251.90552 265.23828 256.77344 L 265.23828 273.93555 C 265.23828 280.19873 266.85157 284.83423 270.07617 287.8418 C 273.30079 290.84937 278.52564 292.35352 285.75 292.35352 C 289.34668 292.35352 292.22998 292.167 294.40039 291.79492 C 296.6018 291.42286 298.47705 290.71045 300.02734 289.65625 C 301.60864 288.57104 302.75562 287.12842 303.46875 285.33008 C 304.21289 283.53174 304.74072 281.1604 305.05078 278.21484 L 297.33008 278.21484 C 297.14404 280.23023 296.84839 281.59546 296.44531 282.30859 C 296.07325 282.99072 295.76367 283.50073 295.51562 283.8418 C 295.29858 284.18286 294.89575 284.47852 294.30664 284.72656 C 293.71753 284.97462 293.14404 285.19092 292.58594 285.37695 C 292.02783 285.56299 289.60889 285.65625 285.33008 285.65625 C 281.05127 285.65625 278.09057 284.86646 276.44727 283.28516 C 274.80395 281.67286 273.98242 278.81934 273.98242 274.72656 L 273.98242 267.79688 L 305.14258 267.79688 L 305.14258 256.07617 C 305.14258 251.27027 303.49951 247.5813 300.21289 245.00781 C 296.95727 242.40332 291.96655 241.10156 285.23828 241.10156 z M 346.81445 241.33398 C 344.02393 241.30298 341.34302 241.6582 338.76953 242.40234 C 333.8396 243.7666 330.81543 245.96924 329.69922 249.00781 L 329.69922 242.03125 L 320.95703 242.03125 L 320.95703 291.33008 L 329.69922 291.33008 L 329.69922 256.82031 C 329.69922 254.83594 331.45142 253.00635 334.95508 251.33203 C 338.45874 249.65772 342.32032 248.82227 346.53711 248.82227 L 346.81445 241.33398 z M 164.31445 242.03125 L 164.31445 291.33008 L 173.05859 291.33008 L 173.05859 242.03125 L 164.31445 242.03125 z M 285.42383 247.79883 C 289.11353 247.79883 291.90357 248.32471 293.79492 249.37891 C 295.71729 250.4331 296.67969 252.35596 296.67969 255.14648 L 296.67969 261.89062 L 273.98242 261.89062 L 273.98242 255.98438 C 273.98242 253.06983 274.95874 250.97632 276.91211 249.70508 C 278.89649 248.43384 281.73413 247.79883 285.42383 247.79883 z M 33.298828 264.21484 L 33.298828 278.44727 C 32.864746 279.90454 31.920166 281.2063 30.462891 282.35352 C 29.036621 283.46972 27.42334 284.323 25.625 284.91211 C 23.82666 285.47022 21.8125 285.75 19.580078 285.75 C 17.378662 285.75 15.487549 285.16065 13.90625 283.98242 C 12.355957 282.8042 11.580078 281.06787 11.580078 278.77344 C 11.580078 276.448 12.417481 274.65015 14.091797 273.37891 C 15.79712 272.10767 18.851074 270.83569 23.253906 269.56445 C 27.687744 268.26221 31.035401 266.47827 33.298828 264.21484 z "
     style="font-style:normal;font-variant:normal;font-weight:normal;font-stretch:normal;font-size:95.25px;font-family:Monda;-inkscape-font-specification:Monda;fill:url(#linearGradient855);fill-opacity:1;stroke-width:0.26458332"
     id="path851"
     d="m 106.27148,221.33398 v 69.9961 h 8.74414 v -35.25391 c 1e-5,-2.48046 1.03785,-4.48071 3.11524,-6 2.07739,-1.51928 4.94678,-2.27734 8.60547,-2.27734 7.31738,0 10.97461,2.37134 10.97461,7.11523 v 36.41602 h 8.74414 v -35.95117 c 0,-2.01538 -0.30957,-3.86084 -0.92969,-5.53516 -2.17041,-5.8291 -7.44092,-8.74219 -15.8125,-8.74219 -6.60425,0 -11.50367,1.85937 -14.69727,5.58008 v -25.34766 z m 104.69141,0 c -5.11597,0 -8.92993,1.06959 -11.44141,3.20899 -2.48046,2.1084 -3.7207,5.44214 -3.7207,10 v 7.48828 h -8.23242 v 6.60352 h 8.23242 v 42.69531 h 8.74414 v -42.69531 h 11.95313 v -6.60352 h -11.95313 v -8.32617 c 0,-4.12378 2.37134,-6.18555 7.11524,-6.18555 h 5.39648 l -0.55859,-6.18555 z m -46.64844,2.74414 v 9.07032 h 8.74414 v -9.07032 z m 68.32227,2.69727 -1.07031,15.25586 h -8.55664 v 6.60352 h 8.23046 v 28.60351 c 0,5.302 1.52002,9.03857 4.5586,11.20899 3.06958,2.1704 8.04638,3.25585 14.92969,3.25585 h 1.30273 l 0.92969,-7.3496 h -0.97656 c -4.43384,0 -7.55127,-0.4961 -9.34961,-1.48829 -1.76734,-1.02319 -2.65039,-3.08496 -2.65039,-6.18554 v -28.04492 h 12.37109 v -6.60352 H 239.98438 V 226.77539 Z M 24.277344,241.10156 c -6.387207,0 -11.193359,1.13111 -14.417969,3.39453 -3.1936035,2.26343 -4.7910156,5.79761 -4.7910156,10.60352 v 2.23242 h 8.4179686 v -2.18555 c 0,-1.79833 0.30957,-3.22509 0.929688,-4.27929 1.209228,-2.04639 4.481445,-3.06836 9.814453,-3.06836 3.782715,0 6.231445,0.66675 7.347656,2 1.147217,1.33325 1.720703,2.69653 1.720703,4.09179 0,1.39526 -0.04565,2.41919 -0.138672,3.07032 -0.09302,0.62011 -0.573241,1.4873 -1.441406,2.60351 -0.837158,1.11622 -4.061767,2.44971 -9.673828,4 -9.704834,2.82154 -15.5349122,5.78224 -17.4882814,8.88282 -0.9611816,1.51929 -1.4414062,3.42627 -1.4414062,5.7207 0,4.03076 1.3791504,7.41016 4.1386718,10.13867 2.7595218,2.69751 6.6350098,4.04688 11.6269528,4.04688 2.139404,0 4.078125,-0.24805 5.814453,-0.74414 3.627687,-0.9922 6.729249,-3.41114 9.302735,-7.25586 0.806153,2.51148 1.967041,4.3728 3.486328,5.58203 1.519287,1.17822 3.831055,1.76757 6.931641,1.76757 h 1.765625 l 1.023437,-6.69726 c -2.139404,0 -3.534423,-0.37305 -4.185547,-1.11719 -0.651122,-0.77514 -0.976562,-2.44995 -0.976562,-5.02344 v -21.02148 c 0,-5.36401 -1.363281,-9.48755 -4.091797,-12.37109 -2.728515,-2.91456 -7.286621,-4.3711 -13.673828,-4.3711 z m 50.554687,0 c -6.263184,0 -10.604981,1.2085 -13.023437,3.62696 -1.209229,1.20922 -2.076417,2.62011 -2.603516,4.23242 -0.5271,1.58129 -0.791016,3.68872 -0.791016,6.32422 0,2.6355 0.698487,4.83813 2.09375,6.60546 1.42627,1.73633 3.936524,3.24048 7.533204,4.51172 l 11.720703,4.32422 c 2.17041,0.80616 3.54956,1.73682 4.138672,2.79102 0.589111,1.02319 0.884765,2.60474 0.884765,4.74414 0,4.92993 -3.302002,7.39453 -9.90625,7.39453 -5.333008,0 -10.216552,-1.24024 -14.65039,-3.7207 l -2.140625,6.41797 c 1.674316,0.93017 4.077392,1.82909 7.208984,2.69726 3.131592,0.86817 6.713379,1.30274 10.744141,1.30274 5.519043,0 9.596923,-1.30176 12.232422,-3.90625 2.635497,-2.6355 3.953124,-6.00098 3.953124,-10.09375 10e-7,-4.09278 -0.636963,-7.08325 -1.908203,-8.97461 -1.27124,-1.92236 -3.92041,-3.67456 -7.951171,-5.25586 l -11.582032,-4.5586 c -1.674316,-0.58911 -2.80542,-1.23999 -3.394531,-1.95312 -0.558106,-0.74414 -0.837891,-1.98438 -0.837891,-3.72071 0,-1.73632 0.357178,-3.05395 1.070313,-3.95312 1.178223,-1.42627 3.984131,-2.13867 8.417969,-2.13867 1.922363,0 4.170654,0.2937 6.74414,0.88281 2.573486,0.55811 4.651123,1.16333 6.232422,1.81445 l 2,-6.69726 c -4.526855,-1.79834 -9.922363,-2.69727 -16.185547,-2.69727 z m 210.406249,0 c -6.69727,0 -11.70581,1.39502 -15.02344,4.18555 -3.31762,2.79053 -4.97656,6.61841 -4.97656,11.48633 v 17.16211 c 0,6.26318 1.61329,10.89868 4.83789,13.90625 3.22462,3.00757 8.44947,4.51172 15.67383,4.51172 3.59668,0 6.47998,-0.18652 8.65039,-0.5586 2.20141,-0.37206 4.07666,-1.08447 5.62695,-2.13867 1.5813,-1.08521 2.72828,-2.52783 3.44141,-4.32617 0.74414,-1.79834 1.27197,-4.16968 1.58203,-7.11524 h -7.7207 c -0.18604,2.01539 -0.48169,3.38062 -0.88477,4.09375 -0.37206,0.68213 -0.68164,1.19214 -0.92969,1.53321 -0.21704,0.34106 -0.61987,0.63672 -1.20898,0.88476 -0.58911,0.24806 -1.1626,0.46436 -1.7207,0.65039 -0.55811,0.18604 -2.97705,0.2793 -7.25586,0.2793 -4.27881,0 -7.23951,-0.78979 -8.88281,-2.37109 -1.64332,-1.6123 -2.46485,-4.46582 -2.46485,-8.5586 v -6.92968 h 31.16016 v -11.72071 c 0,-4.8059 -1.64307,-8.49487 -4.92969,-11.06836 -3.25562,-2.60449 -8.24634,-3.90625 -14.97461,-3.90625 z m 61.57617,0.23242 c -2.79052,-0.031 -5.47143,0.32422 -8.04492,1.06836 -4.92993,1.36426 -7.9541,3.5669 -9.07031,6.60547 v -6.97656 h -8.74219 v 49.29883 h 8.74219 v -34.50977 c 0,-1.98437 1.7522,-3.81396 5.25586,-5.48828 3.50366,-1.67431 7.36524,-2.50976 11.58203,-2.50976 z m -182.5,0.69727 v 49.29883 h 8.74414 v -49.29883 z m 121.10938,5.76758 c 3.6897,0 6.47974,0.52588 8.37109,1.58008 1.92237,1.05419 2.88477,2.97705 2.88477,5.76757 v 6.74414 h -22.69727 v -5.90624 c 0,-2.91455 0.97632,-5.00806 2.92969,-6.2793 1.98438,-1.27124 4.82202,-1.90625 8.51172,-1.90625 z M 33.298828,264.21484 v 14.23243 c -0.434082,1.45727 -1.378662,2.75903 -2.835937,3.90625 -1.42627,1.1162 -3.039551,1.96948 -4.837891,2.55859 -1.79834,0.55811 -3.8125,0.83789 -6.044922,0.83789 -2.201416,0 -4.092529,-0.58935 -5.673828,-1.76758 -1.550293,-1.17822 -2.326172,-2.91455 -2.326172,-5.20898 0,-2.32544 0.837403,-4.12329 2.511719,-5.39453 1.705323,-1.27124 4.759277,-2.54322 9.162109,-3.81446 4.433838,-1.30224 7.781495,-3.08618 10.044922,-5.34961 z"
     transform="matrix(1.0169437,0,0,1.0169437,-3.0824939,-220.84278)" />
  <g
     inkscape:label="Layer 1"
     inkscape:groupmode="layer"
     id="layer1"
     transform="translate(0,-217)" />
</svg>
