<?xml version="1.0" encoding="UTF-8" standalone="no"?>
<!-- Created with Inkscape (http://www.inkscape.org/) -->

<svg
   xmlns:dc="http://purl.org/dc/elements/1.1/"
   xmlns:cc="http://creativecommons.org/ns#"
   xmlns:rdf="http://www.w3.org/1999/02/22-rdf-syntax-ns#"
   xmlns:svg="http://www.w3.org/2000/svg"
   xmlns="http://www.w3.org/2000/svg"
   xmlns:sodipodi="http://sodipodi.sourceforge.net/DTD/sodipodi-0.dtd"
   xmlns:inkscape="http://www.inkscape.org/namespaces/inkscape"
   width="1700"
   height="512"
   viewBox="0 0 449.79164 135.46667"
   version="1.1"
   id="svg8"
   inkscape:version="0.92.3 (2405546, 2018-03-11)"
   sodipodi:docname="MonoHack_Banner_Transparent.svg"
   inkscape:export-filename="C:\Users\Logan\Pictures\MonoHack\Icon\MonoHack_BannerTransparent_1700x.png"
   inkscape:export-xdpi="96"
   inkscape:export-ydpi="96">
  <defs
     id="defs2" />
  <sodipodi:namedview
     id="base"
     pagecolor="#ffffff"
     bordercolor="#666666"
     borderopacity="1.0"
     inkscape:pageopacity="0.0"
     inkscape:pageshadow="2"
     inkscape:zoom="0.5"
     inkscape:cx="751.14211"
     inkscape:cy="219.84592"
     inkscape:document-units="mm"
     inkscape:current-layer="layer1"
     showgrid="false"
     units="px"
     inkscape:window-width="1920"
     inkscape:window-height="1018"
     inkscape:window-x="-8"
     inkscape:window-y="-8"
     inkscape:window-maximized="1" />
  <metadata
     id="metadata5">
    <rdf:RDF>
      <cc:Work
         rdf:about="">
        <dc:format>image/svg+xml</dc:format>
        <dc:type
           rdf:resource="http://purl.org/dc/dcmitype/StillImage" />
        <dc:title></dc:title>
      </cc:Work>
    </rdf:RDF>
  </metadata>
  <g
     inkscape:label="Layer 1"
     inkscape:groupmode="layer"
     id="layer1"
     transform="translate(0,-161.53332)">
    <g
       id="g821"
       transform="translate(0.75882177)"
       inkscape:label="Symbol">
      <path
         inkscape:label="LeftBracket"
         d="m 17.536226,195.59847 h 21.498279 v 7.45066 H 26.616727 v 52.15467 h 12.417778 v 7.45067 H 17.536226 Z"
         style="font-style:normal;font-variant:normal;font-weight:bold;font-stretch:normal;font-size:77.6111145px;line-height:1;font-family:'Ubuntu Mono';-inkscape-font-specification:'Ubuntu Mono Bold';letter-spacing:0px;word-spacing:0px;fill:#ffffff;fill-opacity:1;stroke:none;stroke-width:0.26458332"
         id="path837"
         inkscape:connector-curvature="0" />
      <path
         inkscape:label="RightBracket"
         d="M 116.41279,262.65447 H 94.836896 V 255.2038 H 107.25467 V 203.04913 H 94.836896 v -7.45066 h 21.575894 z"
         style="font-style:normal;font-variant:normal;font-weight:bold;font-stretch:normal;font-size:77.6111145px;line-height:1;font-family:'Ubuntu Mono';-inkscape-font-specification:'Ubuntu Mono Bold';letter-spacing:0px;word-spacing:0px;fill:#ffffff;fill-opacity:1;stroke:none;stroke-width:0.26458332"
         id="path841"
         inkscape:connector-curvature="0" />
      <rect
         inkscape:label="Orange"
         y="195.59846"
         x="39.034504"
         height="67.056015"
         width="55.802391"
         id="rect835"
         style="opacity:1;fill:#e63c00;fill-opacity:1;stroke:none;stroke-width:53.97860336;stroke-miterlimit:4;stroke-dasharray:none;stroke-dashoffset:0;stroke-opacity:1" />
      <path
         inkscape:label="Pound"
         d="m 58.282062,216.90272 2.250722,-11.79689 h 7.916334 l -2.328334,11.79689 h 6.208889 l 2.250723,-11.79689 h 7.916333 l -2.250722,11.79689 h 4.811889 v 7.91633 h -6.364111 l -1.629834,8.53722 h 7.993945 v 7.91634 H 75.58934 l -2.250722,11.8745 h -7.916334 l 2.250722,-11.8745 h -6.208889 l -2.173111,11.8745 h -7.916334 l 2.250723,-11.8745 h -4.656667 v -7.91634 h 6.131278 l 1.629833,-8.53722 h -7.761111 v -7.91633 z m 4.734278,16.45355 h 6.208889 l 1.552222,-8.53722 h -6.131278 z"
         style="font-style:normal;font-variant:normal;font-weight:bold;font-stretch:normal;font-size:77.6111145px;line-height:1;font-family:'Ubuntu Mono';-inkscape-font-specification:'Ubuntu Mono Bold';letter-spacing:0px;word-spacing:0px;fill:#000000;fill-opacity:1;stroke:none;stroke-width:0.26458332"
         id="path839"
         inkscape:connector-curvature="0" />
    </g>
    <g
       aria-label="  MonoHack"
       style="font-style:normal;font-variant:normal;font-weight:bold;font-stretch:normal;font-size:77.6111145px;line-height:1;font-family:'Ubuntu Mono';-inkscape-font-specification:'Ubuntu Mono Bold';letter-spacing:0px;word-spacing:0px;fill:#ffffff;fill-opacity:1;stroke:none;stroke-width:0.26458332"
       id="text841"
       inkscape:label="Text">
      <path
         d="m 138.43775,205.10472 q 0.54328,1.62983 1.31939,4.191 0.85372,2.56116 1.78506,5.51039 0.93133,2.94922 1.86266,5.97605 0.93134,3.02683 1.78506,5.588 0.93133,-2.87161 1.94028,-5.89844 1.00894,-3.10445 1.94028,-5.89845 0.93133,-2.87161 1.70744,-5.35516 0.77611,-2.48356 1.397,-4.11339 h 7.91633 q 0.54328,6.2865 1.00895,12.26255 0.54328,5.97606 0.85372,11.8745 0.38806,5.82084 0.62089,11.79689 0.23283,5.89845 0.38806,12.10734 h -8.77006 l 0.46567,-37.33095 -5.89845,20.33411 h -6.985 l -5.66561,-20.33411 0.38806,37.33095 h -8.77006 q 0.23283,-5.89845 0.46567,-12.26256 0.31044,-6.36411 0.62088,-12.65061 0.31045,-6.2865 0.69851,-12.18495 0.46566,-5.89844 1.00894,-10.94316 z"
         style="font-size:77.6111145px;fill:#ffffff;stroke-width:0.26458332"
         id="path843"
         inkscape:connector-curvature="0" />
      <path
         d="m 201.38037,234.82977 q 0,4.34623 -1.24178,7.91634 -1.24178,3.4925 -3.4925,6.05366 -2.25072,2.56117 -5.43278,3.95817 -3.10444,1.397 -6.985,1.397 -3.88055,0 -7.06261,-1.397 -3.10445,-1.397 -5.43278,-3.95817 -2.25072,-2.56116 -3.4925,-6.05366 -1.24178,-3.57011 -1.24178,-7.91634 0,-4.26861 1.24178,-7.76111 1.31939,-3.57011 3.57011,-6.05367 2.32834,-2.56116 5.51039,-3.88055 3.18206,-1.397 6.90739,-1.397 3.80295,0 6.90739,1.397 3.18206,1.31939 5.43278,3.88055 2.32833,2.48356 3.57011,6.05367 1.24178,3.4925 1.24178,7.76111 z m -24.68034,0.0776 q 0,4.8895 1.70745,7.91634 1.78505,3.02683 5.66561,3.02683 3.72533,0 5.588,-3.02683 1.94028,-3.02684 1.94028,-7.91634 0,-4.8895 -1.78506,-7.83872 -1.70744,-3.02683 -5.588,-3.02683 -3.72533,0 -5.66561,3.02683 -1.86267,2.94922 -1.86267,7.83872 z"
         style="font-size:77.6111145px;fill:#ffffff;stroke-width:0.26458332"
         id="path845"
         inkscape:connector-curvature="0" />
      <path
         d="m 208.44298,217.83294 q 2.56117,-0.6985 6.2865,-1.31939 3.80294,-0.62089 8.22678,-0.62089 4.34622,0 7.21783,1.24178 2.87161,1.16417 4.50145,3.41489 1.70744,2.17311 2.40594,5.27755 0.6985,3.02684 0.6985,6.75217 V 253.146 h -9.54617 v -19.32517 q 0,-5.12233 -1.16416,-7.37306 -1.16417,-2.25072 -4.73428,-2.25072 -1.08656,0 -2.17311,0.0776 -1.00895,0.0776 -2.17311,0.23283 V 253.146 h -9.54617 z"
         style="font-size:77.6111145px;fill:#ffffff;stroke-width:0.26458332"
         id="path847"
         inkscape:connector-curvature="0" />
      <path
         d="m 278.99148,234.82977 q 0,4.34623 -1.24178,7.91634 -1.24177,3.4925 -3.4925,6.05366 -2.25072,2.56117 -5.43277,3.95817 -3.10445,1.397 -6.985,1.397 -3.88056,0 -7.06262,-1.397 -3.10444,-1.397 -5.43277,-3.95817 -2.25073,-2.56116 -3.4925,-6.05366 -1.24178,-3.57011 -1.24178,-7.91634 0,-4.26861 1.24178,-7.76111 1.31938,-3.57011 3.57011,-6.05367 2.32833,-2.56116 5.51039,-3.88055 3.18205,-1.397 6.90739,-1.397 3.80294,0 6.90738,1.397 3.18206,1.31939 5.43278,3.88055 2.32834,2.48356 3.57011,6.05367 1.24178,3.4925 1.24178,7.76111 z m -24.68033,0.0776 q 0,4.8895 1.70744,7.91634 1.78506,3.02683 5.66561,3.02683 3.72534,0 5.588,-3.02683 1.94028,-3.02684 1.94028,-7.91634 0,-4.8895 -1.78505,-7.83872 -1.70745,-3.02683 -5.588,-3.02683 -3.72534,0 -5.66562,3.02683 -1.86266,2.94922 -1.86266,7.83872 z"
         style="font-size:77.6111145px;fill:#ffffff;stroke-width:0.26458332"
         id="path849"
         inkscape:connector-curvature="0" />
      <path
         d="M 316.47765,205.10472 V 253.146 h -9.54617 V 231.95816 H 294.20326 V 253.146 h -9.54617 v -48.04128 h 9.54617 v 18.93711 h 12.72822 v -18.93711 z"
         style="font-size:77.6111145px;fill:#ffffff;stroke-width:0.26458332"
         id="path851"
         inkscape:connector-curvature="0" />
      <path
         d="m 339.45055,246.31622 q 1.55223,0 3.02684,0 1.47461,-0.0776 2.56117,-0.23284 v -8.382 q -0.93134,-0.15522 -2.25073,-0.23283 -1.31939,-0.15522 -2.40594,-0.15522 -1.47461,0 -2.87161,0.23283 -1.397,0.15522 -2.48356,0.62089 -1.00894,0.46567 -1.62983,1.31939 -0.62089,0.85372 -0.62089,2.25072 0,2.48356 1.86267,3.57011 1.86266,1.00895 4.81188,1.00895 z m -0.85372,-30.57878 q 4.50145,0 7.45067,1.08655 3.02683,1.00895 4.81189,2.94923 1.78505,1.86266 2.56117,4.65666 0.77611,2.71639 0.77611,6.13128 v 21.73111 q -2.0955,0.46567 -6.20889,1.08656 -4.11339,0.62089 -9.23573,0.62089 -3.4925,0 -6.36411,-0.62089 -2.794,-0.62089 -4.81189,-2.01789 -2.01788,-1.47461 -3.10444,-3.72533 -1.08656,-2.32834 -1.08656,-5.66561 0,-3.18206 1.24178,-5.35517 1.24178,-2.17311 3.33728,-3.4925 2.0955,-1.31939 4.81189,-1.86267 2.71639,-0.62089 5.66561,-0.62089 3.72533,0 6.59695,0.62089 v -1.16416 q 0,-2.71639 -1.70745,-4.50145 -1.70744,-1.86267 -5.89844,-1.86267 -2.71639,0 -5.27756,0.38806 -2.48356,0.38805 -4.03578,0.93133 l -1.31939,-7.6835 q 1.78506,-0.62089 5.04473,-1.08655 3.25966,-0.54328 6.75216,-0.54328 z"
         style="font-size:77.6111145px;fill:#ffffff;stroke-width:0.26458332"
         id="path853"
         inkscape:connector-curvature="0" />
      <path
         d="m 362.1906,234.90738 q 0,-3.95816 1.24177,-7.45066 1.24178,-3.4925 3.80295,-6.05367 2.56117,-2.63878 6.44172,-4.11339 3.95817,-1.55222 9.39095,-1.55222 3.25966,0 5.89844,0.46567 2.63878,0.46566 5.35517,1.55222 l -2.0955,7.6835 q -1.55222,-0.54328 -3.4925,-0.93134 -1.86267,-0.46566 -4.81189,-0.46566 -3.41489,0 -5.74322,0.85372 -2.25073,0.77611 -3.64773,2.25072 -1.397,1.397 -2.01789,3.41489 -0.62088,2.01789 -0.62088,4.34622 0,5.04473 2.794,7.91634 2.87161,2.87161 9.70139,2.87161 2.25072,0 4.65666,-0.31045 2.48356,-0.31044 4.50145,-1.00894 l 1.397,7.83872 q -2.01789,0.77611 -4.8895,1.24178 -2.87161,0.54328 -6.75217,0.54328 -5.588,0 -9.62378,-1.47461 -3.95817,-1.47461 -6.51933,-4.03578 -2.56117,-2.56117 -3.80295,-6.05367 -1.16416,-3.4925 -1.16416,-7.52828 z"
         style="font-size:77.6111145px;fill:#ffffff;stroke-width:0.26458332"
         id="path855"
         inkscape:connector-curvature="0" />
      <path
         d="m 412.09453,231.10444 q 1.397,-1.62983 2.794,-3.41489 1.47461,-1.86267 2.794,-3.80294 1.397,-1.94028 2.63878,-3.72534 1.24177,-1.86266 2.17311,-3.4925 h 11.48644 q -1.397,1.78506 -3.18205,3.88056 -1.78506,2.0955 -3.72534,4.26861 -1.86266,2.17311 -3.80294,4.191 -1.86267,2.01789 -3.41489,3.72533 1.94028,1.86267 4.191,4.50145 2.25072,2.56116 4.42383,5.35516 2.17311,2.794 3.95817,5.588 1.86267,2.794 2.94922,4.96712 h -10.94317 q -0.93133,-1.94028 -2.48355,-4.34623 -1.47461,-2.48355 -3.18206,-4.81189 -1.70744,-2.40594 -3.4925,-4.50144 -1.70744,-2.17311 -3.18205,-3.57011 V 253.146 h -9.62378 v -52.23228 l 9.62378,-1.62984 z"
         style="font-size:77.6111145px;fill:#ffffff;stroke-width:0.26458332"
         id="path857"
         inkscape:connector-curvature="0" />
    </g>
  </g>
</svg>
