<?xml version="1.0" encoding="UTF-8" standalone="no"?>
<!-- Created with Inkscape (http://www.inkscape.org/) -->

<svg
   xmlns:dc="http://purl.org/dc/elements/1.1/"
   xmlns:cc="http://creativecommons.org/ns#"
   xmlns:rdf="http://www.w3.org/1999/02/22-rdf-syntax-ns#"
   xmlns:svg="http://www.w3.org/2000/svg"
   xmlns="http://www.w3.org/2000/svg"
   xmlns:xlink="http://www.w3.org/1999/xlink"
   xmlns:sodipodi="http://sodipodi.sourceforge.net/DTD/sodipodi-0.dtd"
   xmlns:inkscape="http://www.inkscape.org/namespaces/inkscape"
   width="195mm"
   height="80mm"
   viewBox="0 0 195 80"
   version="1.1"
   id="svg972"
   inkscape:export-filename="C:\Users\Logan\Desktop\bitmap.png"
   inkscape:export-xdpi="96"
   inkscape:export-ydpi="96"
   inkscape:version="0.92.3 (2405546, 2018-03-11)"
   sodipodi:docname="nou.svg">
  <defs
     id="defs966">
    <linearGradient
       inkscape:collect="always"
       xlink:href="#linearGradient8678"
       id="linearGradient1133"
       gradientUnits="userSpaceOnUse"
       gradientTransform="rotate(-15,24.037162,33.44823)"
       x1="-35.252773"
       y1="242.49403"
       x2="-39.078232"
       y2="257.83023" />
    <linearGradient
       inkscape:collect="always"
       id="linearGradient8678">
      <stop
         style="stop-color:#ffff00;stop-opacity:1;"
         offset="0"
         id="stop8674" />
      <stop
         style="stop-color:#acac00;stop-opacity:1"
         offset="1"
         id="stop8676" />
    </linearGradient>
    <linearGradient
       inkscape:collect="always"
       xlink:href="#linearGradient8725"
       id="linearGradient1137"
       gradientUnits="userSpaceOnUse"
       gradientTransform="rotate(-15,23.95278,34.088857)"
       x1="-35.252773"
       y1="242.49403"
       x2="-39.078232"
       y2="257.83023" />
    <linearGradient
       id="linearGradient8725"
       inkscape:collect="always">
      <stop
         id="stop8721"
         offset="0"
         style="stop-color:#ffe86b;stop-opacity:1" />
      <stop
         id="stop8723"
         offset="1"
         style="stop-color:#f1a800;stop-opacity:1" />
    </linearGradient>
    <linearGradient
       inkscape:collect="always"
       xlink:href="#linearGradient8678"
       id="linearGradient1567"
       gradientUnits="userSpaceOnUse"
       gradientTransform="rotate(-15,24.037162,33.44823)"
       x1="-35.252773"
       y1="242.49403"
       x2="-39.078232"
       y2="257.83023" />
    <linearGradient
       inkscape:collect="always"
       xlink:href="#linearGradient8678"
       id="linearGradient1569"
       gradientUnits="userSpaceOnUse"
       gradientTransform="rotate(-15,24.037162,33.44823)"
       x1="-35.252773"
       y1="242.49403"
       x2="-39.078232"
       y2="257.83023" />
    <linearGradient
       inkscape:collect="always"
       xlink:href="#linearGradient8725"
       id="linearGradient1571"
       gradientUnits="userSpaceOnUse"
       gradientTransform="rotate(-15,23.95278,34.088857)"
       x1="-35.252773"
       y1="242.49403"
       x2="-39.078232"
       y2="257.83023" />
    <linearGradient
       inkscape:collect="always"
       xlink:href="#linearGradient8725"
       id="linearGradient1573"
       gradientUnits="userSpaceOnUse"
       gradientTransform="rotate(-15,23.95278,34.088857)"
       x1="-35.252773"
       y1="242.49403"
       x2="-39.078232"
       y2="257.83023" />
  </defs>
  <sodipodi:namedview
     id="base"
     pagecolor="#ffffff"
     bordercolor="#666666"
     borderopacity="1.0"
     inkscape:pageopacity="0.0"
     inkscape:pageshadow="2"
     inkscape:zoom="1"
     inkscape:cx="313.73907"
     inkscape:cy="67.778784"
     inkscape:document-units="mm"
     inkscape:current-layer="layer1"
     showgrid="false"
     inkscape:window-width="1920"
     inkscape:window-height="1058"
     inkscape:window-x="1912"
     inkscape:window-y="-8"
     inkscape:window-maximized="1" />
  <metadata
     id="metadata969">
    <rdf:RDF>
      <cc:Work
         rdf:about="">
        <dc:format>image/svg+xml</dc:format>
        <dc:type
           rdf:resource="http://purl.org/dc/dcmitype/StillImage" />
        <dc:title></dc:title>
      </cc:Work>
    </rdf:RDF>
  </metadata>
  <g
     inkscape:label="Layer 1"
     inkscape:groupmode="layer"
     id="layer1"
     transform="translate(0,-217)">
    <g
       id="g1067"
       inkscape:label="Logo"
       transform="matrix(4.2700576,1.1441585,-1.1441585,4.2700576,300.42867,-871.87617)">
      <path
         inkscape:connector-curvature="0"
         id="path930"
         style="font-style:normal;font-variant:normal;font-weight:bold;font-stretch:normal;font-size:19.75555611px;line-height:1;font-family:Arial;-inkscape-font-specification:'Arial Bold';letter-spacing:0px;word-spacing:0px;fill:url(#linearGradient1567);fill-opacity:1;stroke:#8d6700;stroke-width:3;stroke-miterlimit:4;stroke-dasharray:none;stroke-dashoffset:0;stroke-opacity:1"
         d="m 28.817093,249.32558 2.758,-0.73901 1.982333,7.39816 q 0.471863,1.76102 0.714168,2.25534 0.401733,0.79115 1.200595,1.12635 0.805685,0.3234 1.961065,0.0138 1.174015,-0.31457 1.643012,-0.94955 0.466498,-0.64431 0.400378,-1.37558 -0.06612,-0.73128 -0.500533,-2.35254 l -2.024772,-7.55655 2.758004,-0.739 1.922409,7.17454 q 0.659112,2.45983 0.707623,3.53536 0.04851,1.07555 -0.369879,1.93665 -0.409078,0.8586 -1.303028,1.54753 -0.896448,0.6796 -2.517709,1.11402 -1.956692,0.52429 -3.092146,0.34918 -1.12863,-0.18692 -1.907881,-0.74709 -0.781743,-0.56947 -1.180312,-1.31154 -0.584784,-1.10162 -1.198959,-3.39374 z"
         inkscape:label="StrU" />
      <path
         inkscape:connector-curvature="0"
         id="path928"
         style="font-style:normal;font-variant:normal;font-weight:bold;font-stretch:normal;font-size:19.75555611px;line-height:1;font-family:Arial;-inkscape-font-specification:'Arial Bold';letter-spacing:0px;word-spacing:0px;fill:url(#linearGradient1569);fill-opacity:1;stroke:#8d6700;stroke-width:3;stroke-miterlimit:4;stroke-dasharray:none;stroke-dashoffset:0;stroke-opacity:1"
         d="m 15.295591,260.35867 q -0.559246,-2.08713 -0.31446,-3.67069 0.186256,-1.16839 0.765367,-2.21237 0.58843,-1.04647 1.440786,-1.70428 1.131701,-0.88246 2.799548,-1.32936 3.018896,-0.80891 5.328331,0.57958 2.31875,1.38599 3.21255,4.72168 0.886303,3.30774 -0.410165,5.66242 -1.298964,2.34537 -4.308544,3.15178 -3.046847,0.8164 -5.34197,-0.55594 -2.297621,-1.38167 -3.171443,-4.64282 z m 2.816885,-0.85468 q 0.621662,2.32007 2.015251,3.23493 1.39109,0.90553 3.040302,0.46363 1.649211,-0.44191 2.385023,-1.90736 0.742636,-1.47727 0.105992,-3.85325 -0.629152,-2.34803 -1.972985,-3.22628 -1.334517,-0.88075 -3.039634,-0.42387 -1.705117,0.45689 -2.43411,1.91053 -0.73149,1.44431 -0.09984,3.80167 z"
         inkscape:label="StrO" />
      <path
         inkscape:connector-curvature="0"
         id="path926"
         style="font-style:normal;font-variant:normal;font-weight:bold;font-stretch:normal;font-size:19.75555611px;line-height:1;font-family:Arial;-inkscape-font-specification:'Arial Bold';letter-spacing:0px;word-spacing:0px;fill:url(#linearGradient1133);fill-opacity:1;stroke:#8d6700;stroke-width:3;stroke-miterlimit:4;stroke-dasharray:none;stroke-dashoffset:0;stroke-opacity:1"
         d="m 3.9001464,270.64234 -3.66007132,-13.65957 2.68346362,-0.71904 8.0347563,7.62393 -2.4442092,-9.12191 2.5623352,-0.68657 3.660071,13.65957 -2.767322,0.7415 -7.8934741,-7.43209 2.3867854,8.9076 z"
         inkscape:label="StrN" />
      <path
         inkscape:connector-curvature="0"
         id="path919"
         style="font-style:normal;font-variant:normal;font-weight:bold;font-stretch:normal;font-size:19.75555611px;line-height:1;font-family:Arial;-inkscape-font-specification:'Arial Bold';letter-spacing:0px;word-spacing:0px;fill:url(#linearGradient1571);fill-opacity:1;stroke:#8d8d00;stroke-width:0;stroke-miterlimit:4;stroke-dasharray:none;stroke-opacity:1"
         d="m 3.7314742,270.64233 -3.66006879,-13.65956 2.68346279,-0.71903 8.0347548,7.62392 -2.4442071,-9.12191 2.5623351,-0.68657 3.660069,13.65956 -2.767322,0.7415 -7.8934744,-7.43209 2.3867854,8.90761 z"
         inkscape:label="RegN" />
      <path
         inkscape:connector-curvature="0"
         id="path921"
         style="font-style:normal;font-variant:normal;font-weight:bold;font-stretch:normal;font-size:19.75555611px;line-height:1;font-family:Arial;-inkscape-font-specification:'Arial Bold';letter-spacing:0px;word-spacing:0px;fill:url(#linearGradient1573);fill-opacity:1;stroke:#8d8d00;stroke-width:0;stroke-miterlimit:4;stroke-dasharray:none;stroke-opacity:1"
         d="m 15.12692,260.35868 q -0.559248,-2.08715 -0.314459,-3.67069 0.186257,-1.1684 0.765367,-2.21238 0.588428,-1.04647 1.440783,-1.70428 1.131704,-0.88246 2.799551,-1.32936 3.018896,-0.80891 5.32833,0.57958 2.318752,1.38599 3.212549,4.72168 0.886307,3.30774 -0.410162,5.66243 -1.298967,2.34536 -4.308544,3.15178 -3.046848,0.8164 -5.341973,-0.55595 -2.29762,-1.38166 -3.171442,-4.64281 z m 2.816886,-0.85469 q 0.621663,2.32008 2.015251,3.23493 1.391093,0.90555 3.040305,0.46364 1.649211,-0.4419 2.385024,-1.90736 0.742634,-1.47726 0.105991,-3.85325 -0.629152,-2.34803 -1.972988,-3.22629 -1.334517,-0.88075 -3.039634,-0.42386 -1.705117,0.45688 -2.43411,1.91052 -0.731487,1.44433 -0.09984,3.80167 z"
         inkscape:label="RegO" />
      <path
         inkscape:connector-curvature="0"
         id="path923"
         style="font-style:normal;font-variant:normal;font-weight:bold;font-stretch:normal;font-size:19.75555611px;line-height:1;font-family:Arial;-inkscape-font-specification:'Arial Bold';letter-spacing:0px;word-spacing:0px;fill:url(#linearGradient1137);fill-opacity:1;stroke:#8d8d00;stroke-width:0;stroke-miterlimit:4;stroke-dasharray:none;stroke-opacity:1"
         d="m 28.648421,249.32558 2.758004,-0.739 1.982329,7.39815 q 0.471866,1.76102 0.714172,2.25535 0.40173,0.79114 1.200594,1.12635 0.805685,0.32339 1.961065,0.0138 1.174015,-0.31458 1.64301,-0.94956 0.4665,-0.6443 0.400381,-1.37558 -0.06612,-0.73127 -0.500534,-2.35253 l -2.024774,-7.55654 2.758003,-0.73901 1.92241,7.17453 q 0.659114,2.45985 0.707625,3.53538 0.04851,1.07553 -0.369884,1.93663 -0.409078,0.8586 -1.303028,1.54753 -0.896446,0.67961 -2.517704,1.11403 -1.956692,0.52429 -3.092146,0.34918 -1.128635,-0.18692 -1.907884,-0.74709 -0.781745,-0.56948 -1.180309,-1.31154 -0.584787,-1.10161 -1.198959,-3.39373 z"
         inkscape:label="RegU" />
    </g>
  </g>
</svg>
