<?xml version="1.0" encoding="UTF-8" standalone="no"?>
<!-- Generator: Adobe Illustrator 22.0.0, SVG Export Plug-In . SVG Version: 6.00 Build 0)  -->

<svg
   xmlns:dc="http://purl.org/dc/elements/1.1/"
   xmlns:cc="http://creativecommons.org/ns#"
   xmlns:rdf="http://www.w3.org/1999/02/22-rdf-syntax-ns#"
   xmlns:svg="http://www.w3.org/2000/svg"
   xmlns="http://www.w3.org/2000/svg"
   xmlns:sodipodi="http://sodipodi.sourceforge.net/DTD/sodipodi-0.dtd"
   xmlns:inkscape="http://www.inkscape.org/namespaces/inkscape"
   version="1.1"
   id="Layer_1"
   x="0px"
   y="0px"
   viewBox="0 0 436.5 179"
   style="enable-background:new 0 0 436.5 179;"
   xml:space="preserve"
   sodipodi:docname="bg.svg"
   inkscape:version="0.92.3 (2405546, 2018-03-11)"><metadata
   id="metadata107"><rdf:RDF><cc:Work
       rdf:about=""><dc:format>image/svg+xml</dc:format><dc:type
         rdf:resource="http://purl.org/dc/dcmitype/StillImage" /></cc:Work></rdf:RDF></metadata><defs
   id="defs105" /><sodipodi:namedview
   pagecolor="#ffffff"
   bordercolor="#666666"
   borderopacity="1"
   objecttolerance="10"
   gridtolerance="10"
   guidetolerance="10"
   inkscape:pageopacity="0"
   inkscape:pageshadow="2"
   inkscape:window-width="1920"
   inkscape:window-height="1018"
   id="namedview103"
   showgrid="false"
   inkscape:zoom="0.68957617"
   inkscape:cx="218.25"
   inkscape:cy="89.5"
   inkscape:window-x="-8"
   inkscape:window-y="-8"
   inkscape:window-maximized="1"
   inkscape:current-layer="Layer_1" />
<style
   type="text/css"
   id="style2">
	.st0{fill:none;stroke:#FFFFFF;stroke-width:4;stroke-miterlimit:10;}
	.st1{fill:none;stroke:#FFFFFF;stroke-width:4;stroke-linecap:round;stroke-linejoin:round;stroke-miterlimit:10;}
</style>
<circle
   class="st0"
   cx="23.3"
   cy="23.2"
   r="4.1"
   id="circle4"
   style="opacity:0.1" />
<circle
   class="st0"
   cx="172.8"
   cy="154.4"
   r="4.1"
   id="circle6"
   style="opacity:0.1" />
<circle
   class="st0"
   cx="109.7"
   cy="91.1"
   r="4.1"
   id="circle8"
   style="opacity:0.1" />
<circle
   class="st0"
   cx="168.7"
   cy="33.2"
   r="4.1"
   id="circle10"
   style="opacity:0.1" />
<circle
   class="st0"
   cx="243.4"
   cy="91.1"
   r="4.1"
   id="circle12"
   style="opacity:0.1" />
<circle
   class="st0"
   cx="401.8"
   cy="158.5"
   r="4.1"
   id="circle14"
   style="opacity:0.1" />
<g
   id="g24"
   style="opacity:0.1">
	<line
   class="st1"
   x1="38.599998"
   y1="71"
   x2="40.900002"
   y2="73.300003"
   id="line16"
   style="fill:none;stroke:#ffffff;stroke-width:4;stroke-linecap:round;stroke-linejoin:round;stroke-miterlimit:10" />
	<line
   class="st1"
   x1="50.900002"
   y1="71"
   x2="48.599998"
   y2="73.300003"
   id="line18"
   style="fill:none;stroke:#ffffff;stroke-width:4;stroke-linecap:round;stroke-linejoin:round;stroke-miterlimit:10" />
	<line
   class="st1"
   x1="38.599998"
   y1="83.300003"
   x2="40.900002"
   y2="81"
   id="line20"
   style="fill:none;stroke:#ffffff;stroke-width:4;stroke-linecap:round;stroke-linejoin:round;stroke-miterlimit:10" />
	<line
   class="st1"
   x1="50.900002"
   y1="83.300003"
   x2="48.599998"
   y2="81"
   id="line22"
   style="fill:none;stroke:#ffffff;stroke-width:4;stroke-linecap:round;stroke-linejoin:round;stroke-miterlimit:10" />
</g>
<g
   id="g34"
   style="opacity:0.1">
	<line
   class="st1"
   x1="221.3"
   y1="18"
   x2="223.60001"
   y2="20.299999"
   id="line26"
   style="fill:none;stroke:#ffffff;stroke-width:4;stroke-linecap:round;stroke-linejoin:round;stroke-miterlimit:10" />
	<line
   class="st1"
   x1="233.60001"
   y1="18"
   x2="231.3"
   y2="20.299999"
   id="line28"
   style="fill:none;stroke:#ffffff;stroke-width:4;stroke-linecap:round;stroke-linejoin:round;stroke-miterlimit:10" />
	<line
   class="st1"
   x1="221.3"
   y1="30.299999"
   x2="223.60001"
   y2="28"
   id="line30"
   style="fill:none;stroke:#ffffff;stroke-width:4;stroke-linecap:round;stroke-linejoin:round;stroke-miterlimit:10" />
	<line
   class="st1"
   x1="233.60001"
   y1="30.299999"
   x2="231.3"
   y2="28"
   id="line32"
   style="fill:none;stroke:#ffffff;stroke-width:4;stroke-linecap:round;stroke-linejoin:round;stroke-miterlimit:10" />
</g>
<g
   id="g44"
   style="opacity:0.1">
	<line
   class="st1"
   x1="177.8"
   y1="93.800003"
   x2="180.10001"
   y2="96.099998"
   id="line36"
   style="fill:none;stroke:#ffffff;stroke-width:4;stroke-linecap:round;stroke-linejoin:round;stroke-miterlimit:10" />
	<line
   class="st1"
   x1="190.10001"
   y1="93.800003"
   x2="187.8"
   y2="96.099998"
   id="line38"
   style="fill:none;stroke:#ffffff;stroke-width:4;stroke-linecap:round;stroke-linejoin:round;stroke-miterlimit:10" />
	<line
   class="st1"
   x1="177.8"
   y1="106.1"
   x2="180.10001"
   y2="103.8"
   id="line40"
   style="fill:none;stroke:#ffffff;stroke-width:4;stroke-linecap:round;stroke-linejoin:round;stroke-miterlimit:10" />
	<line
   class="st1"
   x1="190.10001"
   y1="106.1"
   x2="187.8"
   y2="103.8"
   id="line42"
   style="fill:none;stroke:#ffffff;stroke-width:4;stroke-linecap:round;stroke-linejoin:round;stroke-miterlimit:10" />
</g>
<g
   id="g54"
   style="opacity:0.1">
	<line
   class="st1"
   x1="94.400002"
   y1="143.2"
   x2="96.699997"
   y2="145.5"
   id="line46"
   style="fill:none;stroke:#ffffff;stroke-width:4;stroke-linecap:round;stroke-linejoin:round;stroke-miterlimit:10" />
	<line
   class="st1"
   x1="106.7"
   y1="143.2"
   x2="104.4"
   y2="145.5"
   id="line48"
   style="fill:none;stroke:#ffffff;stroke-width:4;stroke-linecap:round;stroke-linejoin:round;stroke-miterlimit:10" />
	<line
   class="st1"
   x1="94.400002"
   y1="155.5"
   x2="96.699997"
   y2="153.2"
   id="line50"
   style="fill:none;stroke:#ffffff;stroke-width:4;stroke-linecap:round;stroke-linejoin:round;stroke-miterlimit:10" />
	<line
   class="st1"
   x1="106.7"
   y1="155.5"
   x2="104.4"
   y2="153.2"
   id="line52"
   style="fill:none;stroke:#ffffff;stroke-width:4;stroke-linecap:round;stroke-linejoin:round;stroke-miterlimit:10" />
</g>
<g
   id="g64"
   style="opacity:0.1">
	<line
   class="st1"
   x1="317.70001"
   y1="20"
   x2="320"
   y2="22.299999"
   id="line56"
   style="fill:none;stroke:#ffffff;stroke-width:4;stroke-linecap:round;stroke-linejoin:round;stroke-miterlimit:10" />
	<line
   class="st1"
   x1="330"
   y1="20"
   x2="327.70001"
   y2="22.299999"
   id="line58"
   style="fill:none;stroke:#ffffff;stroke-width:4;stroke-linecap:round;stroke-linejoin:round;stroke-miterlimit:10" />
	<line
   class="st1"
   x1="317.70001"
   y1="32.299999"
   x2="320"
   y2="30"
   id="line60"
   style="fill:none;stroke:#ffffff;stroke-width:4;stroke-linecap:round;stroke-linejoin:round;stroke-miterlimit:10" />
	<line
   class="st1"
   x1="330"
   y1="32.299999"
   x2="327.70001"
   y2="30"
   id="line62"
   style="fill:none;stroke:#ffffff;stroke-width:4;stroke-linecap:round;stroke-linejoin:round;stroke-miterlimit:10" />
</g>
<g
   id="g74"
   style="opacity:0.1">
	<line
   class="st1"
   x1="317.70001"
   y1="142"
   x2="320"
   y2="144.3"
   id="line66"
   style="fill:none;stroke:#ffffff;stroke-width:4;stroke-linecap:round;stroke-linejoin:round;stroke-miterlimit:10" />
	<line
   class="st1"
   x1="330"
   y1="142"
   x2="327.70001"
   y2="144.3"
   id="line68"
   style="fill:none;stroke:#ffffff;stroke-width:4;stroke-linecap:round;stroke-linejoin:round;stroke-miterlimit:10" />
	<line
   class="st1"
   x1="317.70001"
   y1="154.3"
   x2="320"
   y2="152"
   id="line70"
   style="fill:none;stroke:#ffffff;stroke-width:4;stroke-linecap:round;stroke-linejoin:round;stroke-miterlimit:10" />
	<line
   class="st1"
   x1="330"
   y1="154.3"
   x2="327.70001"
   y2="152"
   id="line72"
   style="fill:none;stroke:#ffffff;stroke-width:4;stroke-linecap:round;stroke-linejoin:round;stroke-miterlimit:10" />
</g>
<path
   class="st1"
   d="M-126,115.3"
   id="path76"
   style="opacity:0.1" />
<path
   class="st1"
   d="M269.1,157.8l-8.1-0.1c-1.5,0-2.5-1.7-1.7-3l4.1-6.9c0.8-1.3,2.7-1.3,3.4,0l3.9,7  C271.6,156.2,270.6,157.8,269.1,157.8z"
   id="path78"
   style="opacity:0.1" />
<path
   class="st1"
   d="M113.7,41.2l-8.1-0.1c-1.5,0-2.5-1.7-1.7-3l4.1-6.9c0.8-1.3,2.7-1.3,3.4,0l3.9,7  C116.2,39.6,115.2,41.2,113.7,41.2z"
   id="path80"
   style="opacity:0.1" />
<path
   class="st1"
   d="M41.5,156.6l-8.1-0.1c-1.5,0-2.5-1.7-1.7-3l4.1-6.9c0.8-1.3,2.7-1.3,3.4,0l3.9,7C44,155,43,156.7,41.5,156.6z"
   id="path82"
   style="opacity:0.1" />
<path
   class="st1"
   d="M304.6,77.6l-8.1-0.1c-1.5,0-2.5-1.7-1.7-3l4.1-6.9c0.8-1.3,2.7-1.3,3.4,0l3.9,7  C307.1,76,306.1,77.6,304.6,77.6z"
   id="path84"
   style="opacity:0.1" />
<path
   class="st1"
   d="M369.9,40l-8.1-0.1c-1.5,0-2.5-1.7-1.7-3l4.1-6.9c0.8-1.3,2.7-1.3,3.4,0l3.9,7C372.4,38.4,371.4,40,369.9,40z"
   id="path86"
   style="opacity:0.1" />
<path
   class="st1"
   d="M420.9,120l-8.1-0.1c-1.5,0-2.5-1.7-1.7-3l4.1-6.9c0.8-1.3,2.7-1.3,3.4,0l3.9,7  C423.4,118.4,422.4,120,420.9,120z"
   id="path88"
   style="opacity:0.1" />
<g
   id="g98"
   style="opacity:0.1">
	<line
   class="st1"
   x1="357.20001"
   y1="89.099998"
   x2="359.5"
   y2="91.400002"
   id="line90"
   style="fill:none;stroke:#ffffff;stroke-width:4;stroke-linecap:round;stroke-linejoin:round;stroke-miterlimit:10" />
	<line
   class="st1"
   x1="369.5"
   y1="89.099998"
   x2="367.20001"
   y2="91.400002"
   id="line92"
   style="fill:none;stroke:#ffffff;stroke-width:4;stroke-linecap:round;stroke-linejoin:round;stroke-miterlimit:10" />
	<line
   class="st1"
   x1="357.20001"
   y1="101.4"
   x2="359.5"
   y2="99.099998"
   id="line94"
   style="fill:none;stroke:#ffffff;stroke-width:4;stroke-linecap:round;stroke-linejoin:round;stroke-miterlimit:10" />
	<line
   class="st1"
   x1="369.5"
   y1="101.4"
   x2="367.20001"
   y2="99.099998"
   id="line96"
   style="fill:none;stroke:#ffffff;stroke-width:4;stroke-linecap:round;stroke-linejoin:round;stroke-miterlimit:10" />
</g>
<circle
   class="st0"
   cx="415.4"
   cy="36.1"
   r="4.1"
   id="circle100"
   style="opacity:0.1" />
</svg>